<svg width="90" height="90" viewBox="0 0 90 90" fill="none" xmlns="http://www.w3.org/2000/svg">
<path d="M45 3.59998C43.7133 3.59998 42.4336 3.92341 41.2805 4.57029L10.9617 21.607C8.65548 22.9078 7.20001 25.3336 7.20001 27.9633V62.0367C7.20001 64.6734 8.65548 67.0992 10.9617 68.4L41.2805 85.4297C43.5867 86.7304 46.4133 86.7304 48.7195 85.4297L79.0383 68.4C81.3516 67.0992 82.8 64.6664 82.8 62.0367V27.9633C82.8 25.3336 81.3445 22.9078 79.0383 21.607L48.7195 4.57029C47.5664 3.92341 46.2867 3.59998 45 3.59998ZM45 7.19998C45.675 7.19998 46.357 7.36873 46.9617 7.70623L77.2805 24.7429C78.4828 25.425 79.2 26.6484 79.2 27.9633V43.2H75.6V39.6H72V43.2H68.4V46.8H72V50.4H75.6V46.8H79.2V62.0367C79.2 63.3515 78.4828 64.575 77.2734 65.257L46.9617 82.2937C45.7524 82.9687 44.2477 82.9687 43.0383 82.2937L12.7266 65.257C11.5172 64.575 10.8 63.3586 10.8 62.0367V27.9633C10.8 26.6484 11.5172 25.425 12.7266 24.7429L43.0383 7.70623C43.643 7.36873 44.325 7.19998 45 7.19998ZM45 21.6C32.1117 21.6 21.6 32.1117 21.6 45C21.6 57.8883 32.1117 68.4 45 68.4C52.3617 68.4 59.1961 64.9687 63.6117 59.1539L64.8422 57.5297L53.9438 51.2156L52.9594 52.2843C50.9274 54.5062 48.0445 55.8 45 55.8C39.0305 55.8 34.2 50.9695 34.2 45C34.2 39.0304 39.0305 34.2 45 34.2C48.0445 34.2 50.9274 35.4937 52.9594 37.7156L53.9438 38.7843L64.8422 32.4703L63.6117 30.8461C59.1961 25.0312 52.3617 21.6 45 21.6ZM45 25.2C50.5336 25.2 55.5961 27.5695 59.3016 31.5211L54.3656 34.3758C51.7641 32.0976 48.5297 30.6 45 30.6C37.0758 30.6 30.6 37.0758 30.6 45C30.6 52.9242 37.0758 59.4 45 59.4C48.5297 59.4 51.7641 57.9023 54.3656 55.6242L59.3016 58.4789C55.5961 62.4304 50.5336 64.8 45 64.8C34.0664 64.8 25.2 55.9336 25.2 45C25.2 34.0664 34.0664 25.2 45 25.2ZM59.4 39.6V43.2H55.8V46.8H59.4V50.4H63V46.8H66.6V43.2H63V39.6H59.4Z" fill="#68C3D4"/>
</svg>
