<svg width="102" height="102" viewBox="0 0 102 102" fill="none" xmlns="http://www.w3.org/2000/svg">
<path d="M51 4.07996C49.5417 4.07996 48.0914 4.44652 46.7845 5.17964L12.4233 24.4879C9.80954 25.9621 8.16 28.7114 8.16 31.6917V70.3082C8.16 73.2965 9.80954 76.0457 12.4233 77.52L46.7845 96.8203C49.3983 98.2945 52.6017 98.2945 55.2155 96.8203L89.5767 77.52C92.1984 76.0457 93.84 73.2886 93.84 70.3082V31.6917C93.84 28.7114 92.1905 25.9621 89.5767 24.4879L55.2155 5.17964C53.9086 4.44652 52.4583 4.07996 51 4.07996ZM51 8.15996C51.765 8.15996 52.538 8.35121 53.2233 8.73371L87.5845 28.042C88.9472 28.815 89.76 30.2015 89.76 31.6917V70.3082C89.76 71.7984 88.9472 73.185 87.5766 73.9579L53.2233 93.2662C51.8527 94.0312 50.1473 94.0312 48.7767 93.2662L14.4234 73.9579C13.0528 73.185 12.24 71.8064 12.24 70.3082V31.6917C12.24 30.2015 13.0528 28.815 14.4234 28.042L48.7767 8.73371C49.462 8.35121 50.235 8.15996 51 8.15996ZM51 24.48C36.3933 24.48 24.48 36.3932 24.48 51C24.48 65.6067 36.3933 77.52 51 77.52C59.3433 77.52 67.0889 73.6312 72.0933 67.041L73.4878 65.2003L61.1363 58.0443L60.0206 59.2556C57.7177 61.7737 54.4505 63.24 51 63.24C44.2345 63.24 38.76 57.7654 38.76 51C38.76 44.2345 44.2345 38.76 51 38.76C54.4505 38.76 57.7177 40.2262 60.0206 42.7443L61.1363 43.9556L73.4878 36.7996L72.0933 34.9589C67.0889 28.3687 59.3433 24.48 51 24.48ZM51 28.56C57.2714 28.56 63.0089 31.2454 67.2084 35.7239L61.6144 38.9592C58.6659 36.3773 55.0003 34.68 51 34.68C42.0192 34.68 34.68 42.0192 34.68 51C34.68 59.9807 42.0192 67.32 51 67.32C55.0003 67.32 58.6659 65.6226 61.6144 63.0407L67.2084 66.276C63.0089 70.7545 57.2714 73.44 51 73.44C38.6086 73.44 28.56 63.3914 28.56 51C28.56 38.6085 38.6086 28.56 51 28.56ZM71.4 40.8V44.88H67.32V48.96H71.4V53.04H67.32V57.12H71.4V61.2H75.48V57.12H79.56V61.2H83.64V57.12H87.72V53.04H83.64V48.96H87.72V44.88H83.64V40.8H79.56V44.88H75.48V40.8H71.4ZM75.48 48.96H79.56V53.04H75.48V48.96Z" fill="#68C3D4"/>
</svg>
