<svg width="36" height="42" viewBox="0 0 36 42" fill="none" xmlns="http://www.w3.org/2000/svg">
<g clip-path="url(#clip0_1_61)">
<path d="M18 41.6719C17.4616 41.6719 16.9152 41.5243 16.4411 41.2454L11.4831 38.2512C10.7438 37.8247 11.1054 37.677 11.3465 37.595C12.3348 37.2422 12.5357 37.1684 13.5884 36.5532C13.7009 36.4875 13.8456 36.5122 13.9581 36.586L17.767 38.8911C17.9036 38.9731 18.0965 38.9731 18.225 38.8911L33.067 30.1465C33.2036 30.0645 33.292 29.9004 33.292 29.7364V12.2473C33.292 12.075 33.2036 11.9192 33.059 11.829L18.225 3.09263C18.0884 3.0106 17.9036 3.0106 17.767 3.09263L2.9411 11.8372C2.79645 11.9192 2.70806 12.0833 2.70806 12.2555V29.7364C2.70806 29.9004 2.79645 30.0645 2.9411 30.1383L7.00717 32.5336C9.21699 33.6575 10.567 32.3368 10.567 30.9997V13.7403C10.567 13.4942 10.7598 13.3055 11.0009 13.3055H12.8813C13.1143 13.3055 13.3152 13.4942 13.3152 13.7403V31.0079C13.3152 34.0102 11.7081 35.7329 8.91967 35.7329C8.05985 35.7329 7.38485 35.7329 5.50449 34.7813L1.6152 32.4926C0.650917 31.9266 0.0562744 30.8684 0.0562744 29.7282V12.2473C0.0562744 11.1153 0.650917 10.0489 1.6152 9.48286L16.4411 0.73833C17.3813 0.196924 18.6268 0.196924 19.559 0.73833L34.4009 9.49106C35.3652 10.0571 35.9598 11.1153 35.9598 12.2555V29.7364C35.9598 30.8684 35.3652 31.9266 34.4009 32.5008L19.559 41.2454C19.0848 41.5243 18.5465 41.6719 18 41.6719ZM29.9813 24.4372C29.9813 21.1641 27.8116 20.2946 23.2554 19.6793C18.6429 19.0559 18.1768 18.736 18.1768 17.6368C18.1768 16.7262 18.5706 15.5122 21.9857 15.5122C25.0313 15.5122 26.1563 16.1848 26.6223 18.2848C26.6625 18.4817 26.8393 18.6293 27.0402 18.6293H28.9688C29.0893 18.6293 29.2018 18.5801 29.2822 18.4899C29.3625 18.3997 29.4027 18.2766 29.3947 18.1536C29.0973 14.536 26.7429 12.8543 21.9857 12.8543C17.7509 12.8543 15.2277 14.6754 15.2277 17.7352C15.2277 21.0493 17.7429 21.968 21.8009 22.3782C26.6625 22.8622 27.0402 23.5922 27.0402 24.5684C27.0402 26.2583 25.7063 26.9801 22.5804 26.9801C18.6509 26.9801 17.7911 25.9711 17.5018 23.9778C17.4697 23.7645 17.2929 23.6086 17.0759 23.6086H15.1554C14.9143 23.6086 14.7295 23.8055 14.7295 24.0434C14.7295 26.5946 16.0875 29.6379 22.5884 29.6379C27.2813 29.6297 29.9813 27.7348 29.9813 24.4372Z" fill="#68C3D4"/>
</g>
<defs>
<clipPath id="clip0_1_61">
<rect width="36" height="42" fill="white"/>
</clipPath>
</defs>
</svg>
