<svg width="48" height="55" viewBox="0 0 48 55" fill="none" xmlns="http://www.w3.org/2000/svg">
<g clip-path="url(#clip0_1_63)">
<path d="M26.0982 9.84013L34.6816 14.8655C34.9902 15.0419 35.0014 15.5314 34.6816 15.7078L24.4825 21.6835C24.1739 21.8657 23.8093 21.8543 23.5231 21.6835L13.324 15.7078C13.0098 15.5371 13.0043 15.0362 13.324 14.8655L21.9018 9.84013V0L0 12.828V38.4841L8.39832 33.5669V23.5162C8.3927 23.1576 8.80785 22.9015 9.11641 23.095L19.3156 29.0707C19.6242 29.2529 19.7981 29.5773 19.7981 29.9131V41.859C19.8036 42.2175 19.3885 42.4736 19.0799 42.2801L10.4965 37.2548L2.09818 42.172L24 55L45.9018 42.172L37.5035 37.2548L28.9201 42.2801C28.6171 42.4679 28.1908 42.2232 28.2019 41.859V29.9131C28.2019 29.5546 28.3983 29.2358 28.6844 29.0707L38.8836 23.095C39.1865 22.9072 39.6129 23.1462 39.6017 23.5162V33.5669L48 38.4841V12.828L26.0982 0V9.84013Z" fill="#68C3D4"/>
</g>
<defs>
<clipPath id="clip0_1_63">
<rect width="48" height="55" fill="white"/>
</clipPath>
</defs>
</svg>
