<svg width="506" height="506" viewBox="0 0 506 506" fill="none" xmlns="http://www.w3.org/2000/svg">
<path d="M195.842 99C221.246 55 284.754 55 310.158 99L414.947 280.5C440.35 324.5 408.596 379.5 357.789 379.5H148.211C97.404 379.5 65.6498 324.5 91.0533 280.5L195.842 99Z" fill="#D9D9D9"/>
<path d="M130.249 195C119.472 213.667 92.5285 213.667 81.7513 195L38.45 120C27.6728 101.333 41.1443 78 62.6987 78L149.301 78C170.856 78 184.327 101.333 173.55 120L130.249 195Z" fill="#D9D9D9"/>
<path d="M372.955 140.5C365.641 153.167 347.359 153.167 340.046 140.5L314.498 96.25C307.185 83.5834 316.326 67.75 330.952 67.75L382.048 67.75C396.674 67.75 405.815 83.5833 398.502 96.25L372.955 140.5Z" fill="#D9D9D9"/>
<path d="M389.974 118.5C394.208 111.167 404.792 111.167 409.026 118.5L420.718 138.75C424.952 146.083 419.659 155.25 411.191 155.25H387.809C379.341 155.25 374.048 146.083 378.282 138.75L389.974 118.5Z" fill="#D9D9D9"/>
</svg>
